<svg width="53" height="75" viewBox="0 0 53 75" fill="none" xmlns="http://www.w3.org/2000/svg">
<path d="M41.8145 49.0151L48.8669 62.273L32.7204 72.9463L25.6383 59.4182C22.9181 54.3044 26.6335 49.4122 30.9897 47.095C35.3459 44.7777 39.0943 43.9013 41.8145 49.0151Z" fill="#966F1A" stroke="#966F1A" stroke-width="3.43246" stroke-linecap="round" stroke-linejoin="round"/>
<path d="M48.8669 62.273C47.4229 59.5583 43.9907 53.1061 41.8145 49.0151C39.0943 43.9013 35.3459 44.7777 30.9897 47.095C26.6335 49.4122 22.9181 54.3044 25.6383 59.4182" stroke="#C09710" stroke-width="3.43246" stroke-linecap="round"/>
<path d="M28.6705 47.3326C26.4308 41.5033 21.2255 28.1955 18.3218 21.5981M18.3218 21.5981C14.6921 13.3513 6.64494 19.0257 3.9506 12.904C1.25625 6.78241 15.7711 -0.477652 18.3657 5.41725C20.9603 11.3122 14.8291 13.6627 18.3218 21.5981Z" stroke="#C09710" stroke-width="3.43246" stroke-linecap="round"/>
<path d="M30.563 45.813C28.3234 39.9838 23.1181 26.676 20.2144 20.0786M20.2144 20.0786C16.5847 11.8318 8.53752 17.5061 5.84318 11.3845C3.14883 5.26288 17.6637 -1.99718 20.2583 3.89772C22.8528 9.79262 16.7217 12.1432 20.2144 20.0786Z" stroke="#FFD400" stroke-width="3.43246" stroke-linecap="round"/>
<path d="M32.6908 72.6762C31.2467 69.9615 29.0623 65.8181 26.8862 61.7271C26.8862 61.7271 22.5958 56.1495 32.6906 49.0699C36.7304 46.2368 40.8305 47.9973 43.6194 52.5024" stroke="#C09710" stroke-width="3.43246" stroke-linecap="round"/>
<path d="M34.2061 71.8706C32.762 69.1559 29.3299 62.7037 27.1537 58.6127C24.4335 53.4989 28.3383 48.5059 32.6945 46.1886C37.0507 43.8714 40.0145 43.5563 43.3299 48.2095" stroke="#FFD400" stroke-width="3.43246" stroke-linecap="round"/>
<path d="M50.382 61.0383C48.9379 58.3236 48.3267 57.1745 46.1505 53.0835" stroke="#FFD400" stroke-width="3.43246" stroke-linecap="round"/>
</svg>
