<svg width="29" height="29" viewBox="0 0 29 29" fill="none" xmlns="http://www.w3.org/2000/svg">
<circle cx="14.5" cy="14.5" r="14.5" fill="#F6EFB9"/>
<path d="M14.62 17.64C14.3267 17.64 14.0933 17.5467 13.92 17.36C13.76 17.16 13.68 16.8933 13.68 16.56C13.68 16.1733 13.7267 15.8133 13.82 15.48C13.9133 15.1333 14.06 14.7867 14.26 14.44C14.4733 14.0933 14.7533 13.74 15.1 13.38C15.34 13.1 15.5333 12.86 15.68 12.66C15.84 12.4467 15.9467 12.2467 16 12.06C16.0667 11.86 16.1 11.66 16.1 11.46C16.1 11.0867 15.96 10.7933 15.68 10.58C15.4133 10.3667 15.0267 10.26 14.52 10.26C14.04 10.26 13.5933 10.32 13.18 10.44C12.78 10.56 12.3867 10.7333 12 10.96C11.6533 11.1467 11.34 11.22 11.06 11.18C10.7933 11.1267 10.58 11.0067 10.42 10.82C10.26 10.62 10.1667 10.3867 10.14 10.12C10.1133 9.85333 10.1733 9.59333 10.32 9.34C10.4667 9.07333 10.7133 8.84 11.06 8.64C11.6067 8.32 12.2133 8.08 12.88 7.92C13.5467 7.76 14.1667 7.68 14.74 7.68C15.62 7.68 16.3933 7.82667 17.06 8.12C17.7267 8.41333 18.24 8.81333 18.6 9.32C18.9733 9.82667 19.16 10.42 19.16 11.1C19.16 11.5133 19.1 11.9 18.98 12.26C18.86 12.62 18.6667 12.98 18.4 13.34C18.1333 13.6867 17.7667 14.0533 17.3 14.44C16.8867 14.7867 16.56 15.1 16.32 15.38C16.08 15.6467 15.9067 15.9067 15.8 16.16C15.6933 16.4 15.62 16.66 15.58 16.94C15.54 17.14 15.44 17.3067 15.28 17.44C15.1333 17.5733 14.9133 17.64 14.62 17.64ZM14.58 22.1C14.0467 22.1 13.62 21.94 13.3 21.62C12.9933 21.3 12.84 20.8867 12.84 20.38C12.84 19.8867 12.9933 19.4867 13.3 19.18C13.62 18.86 14.0467 18.7 14.58 18.7C15.1133 18.7 15.5267 18.86 15.82 19.18C16.1267 19.4867 16.28 19.8867 16.28 20.38C16.28 20.8867 16.1267 21.3 15.82 21.62C15.5267 21.94 15.1133 22.1 14.58 22.1Z" fill="#9C8A0C"/>
</svg>
